<svg width="833" height="229" viewBox="0 0 833 229" fill="none" xmlns="http://www.w3.org/2000/svg">
<path d="M817.238 51.4654L831.848 51.2891L831.909 132.767C831.909 160.155 835.889 189.466 814.587 210.511C805.115 219.885 792.807 225.868 779.582 227.527C769.466 228.874 759.412 228.58 749.23 228.568L710.165 228.525L33.9488 228.5L33.9292 216.365L745.819 216.328C775.583 216.316 804.827 217.35 815.567 181.72C818.347 172.505 817.74 163.131 817.753 153.579C815.659 156.555 813.546 159.432 811.054 162.004C788.086 185.566 744.539 178.144 730.065 148.638C721.743 131.664 723.611 114.108 723.623 95.7252L723.776 51.4513L737.1 51.4213C737.192 51.414 738.496 51.2333 738.563 51.7599C738.772 53.3893 738.698 61.5513 738.698 62.5824L738.625 99.8393C738.612 109.893 737.761 121.713 740.014 131.413C749.579 172.689 807.08 170.754 815.689 129.938C818.157 118.227 817.232 106.077 817.22 94.1081L817.238 51.4654Z" fill="black"/>
<path d="M207.653 48.2435C225.646 45.1673 248.304 54.8631 260.654 67.8103C279.761 87.8406 278.63 111.01 278.258 136.71C278.076 149.244 278.374 161.955 278.004 174.587C273.136 174.599 268.427 174.44 263.562 174.269L263.451 150.266C256.049 159.977 251.18 165.28 240.272 170.803C234.729 173.307 228.855 175.003 222.829 175.836C206.29 178.175 188.722 174.195 175.391 163.964C162.034 153.75 153.255 138.669 150.967 122.008C146.1 84.6003 169.955 52.7121 207.653 48.2435ZM221.044 161.459C248.241 157.743 267.224 132.614 263.368 105.435C259.512 78.2568 234.288 59.399 207.13 63.3913C180.164 67.3547 161.468 92.3625 165.297 119.349C169.125 146.335 194.039 165.158 221.044 161.459Z" fill="black"/>
<path d="M635.029 48.2522C636.431 48.1058 637.846 48.0385 639.254 48.0507C663.189 48.4242 684.062 61.0089 695.035 82.382C701.391 94.7671 702.309 104.232 701.905 117.844C665.277 118.395 628.404 117.705 591.733 118.112C592.976 126.668 594.525 132.546 599.35 139.918C606.428 150.769 617.615 158.275 630.339 160.712C643.883 163.358 655.743 160.357 667.083 152.844C672.49 148.974 675.153 145.748 679.323 140.574C684.179 141.584 689.573 143.017 694.416 144.217C692.904 146.727 691.404 149.226 689.634 151.571C679.611 164.882 664.609 173.558 648.065 175.604C631.116 177.783 613.953 173.546 600.471 162.911C587.288 152.44 578.77 137.181 576.78 120.465C572.586 82.3251 597.054 52.4385 635.029 48.2522ZM591.886 104.157L646.761 104.174C660.036 104.221 673.316 104.174 686.591 104.036C681.687 76.1261 659.98 60.734 632.065 63.5463C610.665 68.1631 595.419 82.0471 591.886 104.157Z" fill="black"/>
<path d="M435.675 0L436.054 0.382092C437.065 15.5415 436.189 43.4308 436.226 59.5907L436.287 93.5847C436.299 103.133 436.654 113.793 435.062 123.107C432.215 140.39 422.461 155.777 408.041 165.721C393.015 175.903 374.538 179.657 356.728 176.142C339.587 172.726 324.503 162.641 314.786 148.117C305.319 133.82 302.169 115.231 305.675 98.5229C309.256 81.5088 319.49 66.6322 334.099 57.2034C349.495 47.3214 366.764 44.9542 384.463 48.7285C391.878 50.3437 397.791 53.3281 404.147 57.3056C404.466 63.3521 404.288 69.488 404.202 75.5486C394.289 67.2286 384.718 62.2224 371.473 61.7871C357.969 61.3499 344.864 66.402 335.147 75.7911C325.35 85.0546 319.647 97.8396 319.298 111.318C319.008 125.289 324.297 137.886 334.038 147.848C343.494 157.375 356.378 162.708 369.801 162.653C384.013 162.659 395.41 157.865 405.635 148.038C425.713 128.75 421.084 97.9302 421.059 72.2036L420.992 0.163503L435.675 0Z" fill="black"/>
<path d="M58.3065 48.2393C71.0357 46.9963 83.8494 49.5313 95.1464 55.5276C109.921 63.34 120.965 76.7274 125.827 92.7177C131.03 109.378 129.369 127.427 121.214 142.858C113.384 157.675 99.961 168.746 83.9278 173.626C65.6731 179.155 48.4325 176.406 31.831 167.662C31.6896 161.784 31.7661 155.612 31.7459 149.709C35.1552 152.201 37.8218 154.363 41.6169 156.34C59.7062 165.764 81.402 163.351 96.8064 150.015C107.012 141.082 113.201 128.425 113.983 114.883C114.877 99.8443 109.635 88.4548 99.9107 77.4566C90.6013 68.1484 78.8487 62.7607 65.6192 62.5103C52.3328 62.3554 39.5173 67.424 29.931 76.6239C10.8767 95.26 15.0882 122.811 15.1029 147.303L15.0092 228.427C10.6092 228.262 4.65451 228.525 0.136313 228.58L0.184074 148.081C0.151622 135.406 -0.671322 110.066 1.44725 98.872C3.3454 89.2117 7.50294 80.1373 13.5795 72.3904C24.9867 57.7337 40.1786 50.5563 58.3065 48.2393Z" fill="black"/>
<path d="M467.943 0.108437L482.675 0.0919189C483.183 37.6299 482.724 76.2583 482.706 113.881C490.623 105.168 500.126 95.8809 508.41 87.3778C520.014 75.2903 531.721 63.3099 543.544 51.4374C550.819 51.2745 558.344 51.3149 565.643 51.2567C548.455 68.1618 531.396 85.1986 514.466 102.366C525.396 117.247 537.134 132.308 548.431 146.935C555.466 155.949 562.385 165.047 569.182 174.232C562.912 174.428 557.07 174.685 550.782 174.312C535.321 155.428 519.567 132.73 503.885 113.062L482.694 134.438L482.645 174.544C478.322 174.238 472.413 174.342 467.968 174.281C467.741 165.678 467.753 156.953 467.796 148.344C468.059 98.965 467.312 49.4731 467.943 0.108437Z" fill="black"/>
</svg>
