<svg width="1024" height="1024" viewBox="0 0 1024 1024" fill="none" xmlns="http://www.w3.org/2000/svg">
  <rect x="32" y="32" width="960" height="960" rx="224" fill="white"/>
  <rect x="32" y="32" width="960" height="960" rx="224" stroke="#E4E5E7" stroke-width="24"/>
  <g transform="translate(290 115) scale(3.35)">
    <path d="M58.3065 48.2393C71.0357 46.9963 83.8494 49.5313 95.1464 55.5276C109.921 63.34 120.965 76.7274 125.827 92.7177C131.03 109.378 129.369 127.427 121.214 142.858C113.384 157.675 99.961 168.746 83.9278 173.626C65.6731 179.155 48.4325 176.406 31.831 167.662C31.6896 161.784 31.7661 155.612 31.7459 149.709C35.1552 152.201 37.8218 154.363 41.6169 156.34C59.7062 165.764 81.402 163.351 96.8064 150.015C107.012 141.082 113.201 128.425 113.983 114.883C114.877 99.8443 109.635 88.4548 99.9107 77.4566C90.6013 68.1484 78.8487 62.7607 65.6192 62.5103C52.3328 62.3554 39.5173 67.424 29.931 76.6239C10.8767 95.26 15.0882 122.811 15.1029 147.303L15.0092 228.427C10.6092 228.262 4.65451 228.525 0.136313 228.58L0.184074 148.081C0.151622 135.406 -0.671322 110.066 1.44725 98.872C3.3454 89.2117 7.50294 80.1374 13.5795 72.3904C24.9867 57.7337 40.1786 50.5563 58.3065 48.2393Z" fill="#161A22"/>
  </g>
</svg>
